<?xml version="1.0" encoding="utf-8"?>
<!-- Generator: Adobe Illustrator 25.0.0, SVG Export Plug-In . SVG Version: 6.00 Build 0)  -->
<svg version="1.1" id="Layer_1" xmlns="http://www.w3.org/2000/svg" xmlns:xlink="http://www.w3.org/1999/xlink" x="0px" y="0px"
	 viewBox="0 0 1080 276" style="enable-background:new 0 0 1080 276;" xml:space="preserve">
<style type="text/css">
	.st0{fill:#FFFFFF;}
</style>
<polygon class="st0" points="376.2,68.4 388.3,8.4 284.9,8.4 125.5,8.4 22.1,8.4 10,68.4 100.9,68.4 61.5,266 147.3,266 184.4,81.3 
	141.4,68.4 204.3,68.4 164.9,266 250.7,266 287.8,81.3 244.8,68.4 272.8,68.4 "/>
<g>
	<g>
		<path class="st0" d="M409.1,62.6l4.2-20.9h91.4l-4.2,20.9h-29.8l-13.8,68.7H427l13.7-68.7H409.1z"/>
		<path class="st0" d="M597.4,41.8c2.3,0,4.5,0.5,6.5,1.5c2,1,3.7,2.3,5.1,4c1.4,1.7,2.3,3.6,2.9,5.7c0.6,2.1,0.6,4.4,0.1,6.7
			l-11.9,59.8c-0.7,3.6-2.4,6.5-5.2,8.7c-2.8,2.2-6,3.3-9.5,3.3h-65c-2.4,0-4.6-0.5-6.6-1.5c-2-1-3.7-2.3-5-4
			c-1.3-1.7-2.3-3.6-2.9-5.8c-0.6-2.2-0.7-4.4-0.3-6.7l12-59.6c0.7-3.6,2.4-6.5,5.1-8.7c2.7-2.2,5.9-3.3,9.5-3.3H597.4z
			 M534.5,109.4c0.6,0.8,1.4,1.2,2.3,1.2h35.7c1.5,0,2.5-0.8,2.9-2.4l8.3-41.8c0.2-0.9,0-1.8-0.6-2.5c-0.6-0.7-1.4-1.1-2.3-1.1
			h-35.7c-0.7,0-1.3,0.2-1.9,0.7c-0.6,0.5-0.9,1-1.1,1.7l-8.3,41.8C533.7,107.9,533.9,108.7,534.5,109.4z"/>
		<path class="st0" d="M682.2,106h-32.8l-5.1,25.3h-26.9l17.9-89.6h86.3c2.4,0,4.6,0.5,6.6,1.5c2,1,3.7,2.3,5,4s2.3,3.6,2.9,5.7
			c0.6,2.1,0.7,4.4,0.3,6.7L729.5,94c-0.7,3.5-2.4,6.4-5.1,8.6c-2.7,2.3-5.9,3.4-9.5,3.4h-5.8l11.4,25.3h-26.9L682.2,106z
			 M703.9,84.4c0.5-0.4,0.9-1,1-1.7l3.2-16.5c0.2-0.9,0-1.8-0.6-2.5c-0.6-0.7-1.3-1.1-2.2-1.1H658L653.6,85h48.4
			C702.6,85,703.3,84.8,703.9,84.4z"/>
		<path class="st0" d="M830.8,41.8c2.4,0,4.6,0.5,6.6,1.5c2,1,3.7,2.3,5,4c1.3,1.7,2.3,3.6,2.9,5.7c0.6,2.1,0.7,4.4,0.3,6.7
			l-10.2,50.9h13.8l-4.2,20.9h-88.4c-2.3,0-4.4-0.5-6.4-1.5c-2-1-3.6-2.4-4.9-4c-1.3-1.7-2.3-3.6-2.8-5.7c-0.6-2.1-0.6-4.4-0.2-6.7
			l12-59.6c0.7-3.6,2.4-6.5,5.1-8.7c2.7-2.2,5.9-3.3,9.5-3.3H830.8z M771,109.4c0.6,0.8,1.4,1.2,2.3,1.2H806c0.7,0,1.3-0.2,1.9-0.7
			c0.6-0.5,0.9-1,1.1-1.7l8.4-41.8c0.2-0.9,0-1.8-0.6-2.5c-0.6-0.7-1.4-1.1-2.3-1.1h-32.8c-0.7,0-1.3,0.2-1.9,0.7
			c-0.6,0.5-0.9,1-1.1,1.7l-8.3,41.8C770.2,107.9,770.4,108.7,771,109.4z"/>
		<path class="st0" d="M884.7,106.9c-0.2,0.9,0,1.8,0.6,2.5c0.6,0.7,1.4,1.1,2.3,1.1h32.6c0.7,0,1.3-0.2,1.9-0.7
			c0.6-0.5,0.9-1,1.1-1.7l13.3-66.3h26.9l-15.5,77.6c-0.7,3.6-2.4,6.5-5.2,8.7c-2.8,2.2-6,3.3-9.5,3.3h-62.1c-2.4,0-4.6-0.5-6.6-1.5
			c-2-1-3.7-2.3-5-4s-2.3-3.6-2.9-5.8c-0.6-2.2-0.7-4.4-0.3-6.7l14.3-71.7h26.9L884.7,106.9z"/>
		<path class="st0" d="M1050,97.1h-47.7l-2.7,13.4h56.7l-4.2,20.9h-83.6l17.9-89.6h83.6l-4.1,20.9h-56.8l-2.7,13.4h47.9L1050,97.1z"
			/>
	</g>
	<g>
		<path class="st0" d="M361.8,180.9L366,160h91.4l-4.2,20.9h-29.8l-13.8,68.7h-29.8l13.7-68.7H361.8z"/>
		<path class="st0" d="M458,249.6l17.9-89.6h26.9l-17.9,89.6H458z"/>
		<path class="st0" d="M512.4,180.9l4.2-20.9H608l-4.2,20.9h-29.8l-13.8,68.7h-29.8l13.7-68.7H512.4z"/>
		<path class="st0" d="M677.5,224.3h-38.8l-5.1,25.3h-26.9l15.5-77.6c0.7-3.6,2.4-6.5,5.2-8.7c2.8-2.2,6-3.3,9.5-3.3H699
			c2.4,0,4.6,0.5,6.6,1.5c2,1,3.7,2.3,5,4c1.3,1.7,2.3,3.6,2.9,5.7c0.6,2.1,0.6,4.4,0.1,6.7l-14.3,71.8h-26.9L677.5,224.3z
			 M642.8,203.3h38.9l3.7-18.8c0.2-0.9,0-1.8-0.6-2.5c-0.6-0.7-1.4-1.1-2.3-1.1h-32.6c-1.7,0-2.7,0.8-2.9,2.4L642.8,203.3z"/>
		<path class="st0" d="M838.5,160l-17.9,89.6h-46.2l-14.2-70.9l-14.2,70.9h-26.9L737,160h46.3l14.2,70.9l14.1-70.9H838.5z"/>
		<path class="st0" d="M844.1,229.9l1.4-7.2h26.9l-0.5,2.4c-0.2,0.9,0,1.8,0.6,2.5c0.6,0.7,1.4,1.1,2.3,1.1h32.1
			c0.7,0,1.3-0.2,1.9-0.7c0.6-0.5,0.9-1,1.1-1.7l1.8-9c0.2-0.9,0-1.8-0.6-2.5c-0.6-0.7-1.4-1.1-2.3-1.1h-41.5c-2.6,0-5-0.6-7.2-1.7
			c-2.2-1.1-4.1-2.6-5.5-4.4c-1.5-1.8-2.5-3.9-3.1-6.3c-0.6-2.4-0.7-4.9-0.2-7.4l4.1-20.9c0.8-3.8,2.7-7,5.7-9.5
			c3-2.5,6.5-3.7,10.4-3.7h59.1c2.6,0,4.9,0.6,7.2,1.7c2.2,1.1,4.1,2.6,5.5,4.4c1.4,1.8,2.5,3.9,3.2,6.2c0.7,2.3,0.8,4.8,0.3,7.4
			l-1.5,7.3h-26.9l0.5-2.4c0.2-0.9,0-1.8-0.6-2.5c-0.6-0.7-1.4-1.1-2.3-1.1h-32.8c-1.5,0-2.5,0.8-2.9,2.4l-1.4,7.4
			c-0.2,0.9,0,1.8,0.6,2.5c0.6,0.7,1.4,1.1,2.3,1.1h33.9c2.6,0,4.6,0,6.3,0l2.4,0.1c2.5,0.2,4.7,0.8,6.7,2c2,1.2,3.7,2.6,5.1,4.4
			c1.4,1.8,2.3,3.8,2.9,6.1c0.6,2.3,0.6,4.6,0.1,7.1l-4.5,22.4c-0.8,3.8-2.7,7-5.7,9.5c-3,2.5-6.5,3.7-10.4,3.7h-58.5
			c-2.6,0-5-0.6-7.2-1.7c-2.2-1.1-4.1-2.6-5.5-4.4c-1.5-1.8-2.5-3.9-3.1-6.3C843.7,234.9,843.6,232.5,844.1,229.9z"/>
	</g>
</g>
</svg>
